<svg width="30" height="30" viewBox="0 0 30 30" fill="none" xmlns="http://www.w3.org/2000/svg">
<rect width="30" height="30" fill="#0099FF"/>
<path fill-rule="evenodd" clip-rule="evenodd" d="M11.8008 5.92969C12.0286 5.97632 12.2001 6.17837 12.2002 6.41992V7.74023C12.2 8.01607 11.976 8.23997 11.7002 8.24023H10.4404C10.0881 8.24023 9.91976 8.29498 9.84863 8.33203L9.80664 8.36035C9.80266 8.36463 9.79808 8.36892 9.79395 8.37305C9.79395 8.37305 9.76113 8.40872 9.73047 8.53125C9.70045 8.65135 9.68069 8.82398 9.68066 9.05957V12.2598C9.68066 13.0995 9.55277 13.8138 9.22461 14.3223L9.22559 14.3232L9.22168 14.3271C9.22041 14.3291 9.21993 14.332 9.21875 14.334L9.21777 14.333C9.05524 14.5911 8.82783 14.8097 8.5498 14.9951C8.83353 15.1844 9.0662 15.4105 9.22949 15.6826H9.22754C9.55168 16.2007 9.68064 16.9171 9.68066 17.7598V20.96C9.68067 21.1956 9.70047 21.3681 9.73047 21.4883C9.74591 21.5501 9.76137 21.5902 9.77344 21.6143L9.79395 21.6465L9.80664 21.6602C9.82917 21.6838 9.97252 21.7803 10.4404 21.7803H11.7002C11.9761 21.7805 12.2001 22.0043 12.2002 22.2803V23.5996C12.2002 23.8756 11.9761 24.0993 11.7002 24.0996H9.86035C9.06188 24.0996 8.38455 23.813 7.88086 23.2256L7.875 23.2188C7.39214 22.6358 7.18066 21.8692 7.18066 20.9795V17.6797C7.18062 16.9968 7.04913 16.6356 6.90332 16.4678L6.89648 16.46C6.76641 16.3039 6.49142 16.1602 5.91992 16.1602H5.36035C5.08429 16.1602 4.8595 15.9362 4.85938 15.6602V14.3398C4.85948 14.0638 5.08428 13.8398 5.36035 13.8398H5.91992C6.49726 13.8398 6.77488 13.6995 6.90332 13.5518C7.04904 13.3838 7.18066 13.0225 7.18066 12.3398V9.04004C7.18068 8.15029 7.39205 7.3837 7.875 6.80078L7.88086 6.79492L7.97754 6.6875C8.46984 6.17219 9.11194 5.91992 9.86035 5.91992H11.7002L11.8008 5.92969Z" fill="white"/>
<path fill-rule="evenodd" clip-rule="evenodd" d="M19.8633 5.91992C20.6617 5.92004 21.3373 6.2072 21.8291 6.80078C22.3252 7.3831 22.5439 8.14964 22.5439 9.04004V12.3398C22.5439 13.016 22.6725 13.3903 22.8252 13.5762C22.9554 13.7222 23.2322 13.8604 23.8037 13.8604H24.3633C24.6392 13.8606 24.8632 14.0844 24.8633 14.3604V15.6797C24.8633 15.9557 24.6392 16.1794 24.3633 16.1797H23.8037C23.2985 16.1797 23.0229 16.2873 22.876 16.4131L22.8213 16.4678C22.6754 16.6355 22.544 16.9966 22.5439 17.6797V20.9795C22.5439 21.8695 22.3237 22.6355 21.8281 23.2178L21.8291 23.2188C21.3373 23.8123 20.6617 24.0995 19.8633 24.0996H18.0234C17.7474 24.0995 17.5234 23.8757 17.5234 23.5996V22.2803C17.5235 22.0043 17.7474 21.7804 18.0234 21.7803H19.2832C19.7508 21.7802 19.8945 21.6838 19.917 21.6602L19.9297 21.6465C19.9329 21.6428 19.9641 21.6045 19.9932 21.4883C20.0231 21.3681 20.0439 21.1955 20.0439 20.96V17.7598C20.044 16.914 20.1723 16.1947 20.5059 15.6855L20.6445 15.498C20.7927 15.3208 20.9736 15.1633 21.1816 15.0244C20.9719 14.8843 20.7896 14.724 20.6406 14.541L20.501 14.3477C20.1723 13.8287 20.0439 13.1078 20.0439 12.2598V9.05957C20.0439 8.82395 20.0232 8.65135 19.9932 8.53125C19.9778 8.46991 19.9622 8.43033 19.9502 8.40625L19.9297 8.37305L19.917 8.36035C19.8956 8.33732 19.7531 8.2403 19.2832 8.24023H18.0234C17.7475 8.24013 17.5236 8.01617 17.5234 7.74023V6.41992C17.5235 6.1439 17.7474 5.92003 18.0234 5.91992H19.8633Z" fill="white"/>
</svg>
